<mxfile host="app.diagrams.net" modified="2024-03-29T00:54:53.488Z" agent="Mozilla/5.0 (Windows NT 10.0; Win64; x64) AppleWebKit/537.36 (KHTML, like Gecko) Chrome/123.0.0.0 Safari/537.36" etag="wB3dEExTWWzGisVzasLa" version="24.0.7" type="github">
  <diagram name="Page-1" id="0WIzBpWO2H-_zzCbEcWu">
    <mxGraphModel dx="880" dy="508" grid="1" gridSize="10" guides="1" tooltips="1" connect="1" arrows="1" fold="1" page="1" pageScale="1" pageWidth="850" pageHeight="1100" background="#000000" math="0" shadow="0">
      <root>
        <mxCell id="0" />
        <mxCell id="1" parent="0" />
        <mxCell id="KFCWLFptVul_mY4Irt0V-1" value="" style="rounded=0;whiteSpace=wrap;html=1;fillColor=#d5e8d4;strokeColor=#82b366;" vertex="1" parent="1">
          <mxGeometry x="45" y="120" width="720" height="280" as="geometry" />
        </mxCell>
        <mxCell id="KFCWLFptVul_mY4Irt0V-2" value="" style="rounded=1;whiteSpace=wrap;html=1;" vertex="1" parent="1">
          <mxGeometry x="85" y="280" width="30" height="80" as="geometry" />
        </mxCell>
        <mxCell id="KFCWLFptVul_mY4Irt0V-3" value="" style="rounded=1;whiteSpace=wrap;html=1;" vertex="1" parent="1">
          <mxGeometry x="85" y="160" width="30" height="80" as="geometry" />
        </mxCell>
        <mxCell id="KFCWLFptVul_mY4Irt0V-4" value="" style="rounded=1;whiteSpace=wrap;html=1;" vertex="1" parent="1">
          <mxGeometry x="135" y="280" width="30" height="80" as="geometry" />
        </mxCell>
        <mxCell id="KFCWLFptVul_mY4Irt0V-5" value="" style="rounded=1;whiteSpace=wrap;html=1;" vertex="1" parent="1">
          <mxGeometry x="135" y="160" width="30" height="80" as="geometry" />
        </mxCell>
        <mxCell id="KFCWLFptVul_mY4Irt0V-6" value="" style="rounded=1;whiteSpace=wrap;html=1;" vertex="1" parent="1">
          <mxGeometry x="655" y="280" width="30" height="80" as="geometry" />
        </mxCell>
        <mxCell id="KFCWLFptVul_mY4Irt0V-7" value="" style="rounded=1;whiteSpace=wrap;html=1;" vertex="1" parent="1">
          <mxGeometry x="655" y="160" width="30" height="80" as="geometry" />
        </mxCell>
        <mxCell id="KFCWLFptVul_mY4Irt0V-8" value="" style="rounded=1;whiteSpace=wrap;html=1;" vertex="1" parent="1">
          <mxGeometry x="705" y="280" width="30" height="80" as="geometry" />
        </mxCell>
        <mxCell id="KFCWLFptVul_mY4Irt0V-9" value="" style="rounded=1;whiteSpace=wrap;html=1;" vertex="1" parent="1">
          <mxGeometry x="705" y="160" width="30" height="80" as="geometry" />
        </mxCell>
        <mxCell id="KFCWLFptVul_mY4Irt0V-10" value="" style="endArrow=none;dashed=1;html=1;dashPattern=1 3;strokeWidth=2;rounded=0;exitX=1;exitY=0.5;exitDx=0;exitDy=0;entryX=0;entryY=0.5;entryDx=0;entryDy=0;" edge="1" parent="1" source="KFCWLFptVul_mY4Irt0V-5" target="KFCWLFptVul_mY4Irt0V-7">
          <mxGeometry width="50" height="50" relative="1" as="geometry">
            <mxPoint x="405" y="290" as="sourcePoint" />
            <mxPoint x="455" y="240" as="targetPoint" />
          </mxGeometry>
        </mxCell>
        <mxCell id="KFCWLFptVul_mY4Irt0V-11" value="" style="endArrow=none;dashed=1;html=1;dashPattern=1 3;strokeWidth=2;rounded=0;exitX=1;exitY=0.5;exitDx=0;exitDy=0;entryX=0;entryY=0.5;entryDx=0;entryDy=0;" edge="1" parent="1">
          <mxGeometry width="50" height="50" relative="1" as="geometry">
            <mxPoint x="165" y="319.5" as="sourcePoint" />
            <mxPoint x="655" y="319.5" as="targetPoint" />
          </mxGeometry>
        </mxCell>
        <mxCell id="KFCWLFptVul_mY4Irt0V-12" value="&lt;font style=&quot;font-size: 16px;&quot;&gt;Input Connector&lt;/font&gt;" style="rounded=0;whiteSpace=wrap;html=1;" vertex="1" parent="1">
          <mxGeometry x="185" y="250" width="450" height="20" as="geometry" />
        </mxCell>
        <mxCell id="KFCWLFptVul_mY4Irt0V-13" value="" style="rounded=0;whiteSpace=wrap;html=1;fillColor=#647687;strokeColor=#314354;fontColor=#ffffff;" vertex="1" parent="1">
          <mxGeometry x="80" y="370" width="40" height="20" as="geometry" />
        </mxCell>
        <mxCell id="KFCWLFptVul_mY4Irt0V-14" value="" style="rounded=0;whiteSpace=wrap;html=1;fillColor=#647687;strokeColor=#314354;fontColor=#ffffff;" vertex="1" parent="1">
          <mxGeometry x="130" y="370" width="40" height="20" as="geometry" />
        </mxCell>
        <mxCell id="KFCWLFptVul_mY4Irt0V-15" value="" style="rounded=0;whiteSpace=wrap;html=1;fillColor=#647687;fontColor=#ffffff;strokeColor=#314354;" vertex="1" parent="1">
          <mxGeometry x="80" y="130" width="40" height="20" as="geometry" />
        </mxCell>
        <mxCell id="KFCWLFptVul_mY4Irt0V-16" value="" style="rounded=0;whiteSpace=wrap;html=1;fillColor=#647687;fontColor=#ffffff;strokeColor=#314354;" vertex="1" parent="1">
          <mxGeometry x="130" y="130" width="40" height="20" as="geometry" />
        </mxCell>
        <mxCell id="KFCWLFptVul_mY4Irt0V-17" value="" style="rounded=0;whiteSpace=wrap;html=1;fillColor=#647687;fontColor=#ffffff;strokeColor=#314354;" vertex="1" parent="1">
          <mxGeometry x="655" y="130" width="40" height="20" as="geometry" />
        </mxCell>
        <mxCell id="KFCWLFptVul_mY4Irt0V-18" value="" style="rounded=0;whiteSpace=wrap;html=1;fillColor=#647687;fontColor=#ffffff;strokeColor=#314354;" vertex="1" parent="1">
          <mxGeometry x="705" y="130" width="40" height="20" as="geometry" />
        </mxCell>
        <mxCell id="KFCWLFptVul_mY4Irt0V-19" value="" style="rounded=0;whiteSpace=wrap;html=1;fillColor=#647687;strokeColor=#314354;fontColor=#ffffff;" vertex="1" parent="1">
          <mxGeometry x="655" y="370" width="40" height="20" as="geometry" />
        </mxCell>
        <mxCell id="KFCWLFptVul_mY4Irt0V-20" value="" style="rounded=0;whiteSpace=wrap;html=1;fillColor=#647687;strokeColor=#314354;fontColor=#ffffff;" vertex="1" parent="1">
          <mxGeometry x="705" y="370" width="40" height="20" as="geometry" />
        </mxCell>
        <mxCell id="KFCWLFptVul_mY4Irt0V-21" value="" style="endArrow=classic;startArrow=classic;html=1;rounded=0;strokeWidth=3;strokeColor=#FFFFFF;" edge="1" parent="1">
          <mxGeometry width="50" height="50" relative="1" as="geometry">
            <mxPoint x="45" y="440" as="sourcePoint" />
            <mxPoint x="765" y="440" as="targetPoint" />
          </mxGeometry>
        </mxCell>
        <mxCell id="KFCWLFptVul_mY4Irt0V-22" value="" style="endArrow=classic;startArrow=classic;html=1;rounded=0;strokeWidth=3;strokeColor=#FFFFFF;" edge="1" parent="1">
          <mxGeometry width="50" height="50" relative="1" as="geometry">
            <mxPoint x="805" y="400" as="sourcePoint" />
            <mxPoint x="805" y="120" as="targetPoint" />
          </mxGeometry>
        </mxCell>
        <mxCell id="KFCWLFptVul_mY4Irt0V-23" value="&lt;span style=&quot;color: rgb(255, 255, 255); font-size: 14px;&quot;&gt;200mm&lt;/span&gt;" style="text;html=1;align=center;verticalAlign=middle;whiteSpace=wrap;rounded=0;" vertex="1" parent="1">
          <mxGeometry x="380" y="450" width="60" height="30" as="geometry" />
        </mxCell>
        <mxCell id="KFCWLFptVul_mY4Irt0V-24" value="&lt;span style=&quot;color: rgb(255, 255, 255); font-size: 14px;&quot;&gt;120mm&lt;/span&gt;" style="text;html=1;align=center;verticalAlign=middle;whiteSpace=wrap;rounded=0;rotation=-90;" vertex="1" parent="1">
          <mxGeometry x="795" y="245" width="60" height="30" as="geometry" />
        </mxCell>
        <mxCell id="KFCWLFptVul_mY4Irt0V-25" value="" style="ellipse;whiteSpace=wrap;html=1;aspect=fixed;strokeColor=#FFFFFF;fillColor=#000000;" vertex="1" parent="1">
          <mxGeometry x="55" y="250" width="20" height="20" as="geometry" />
        </mxCell>
        <mxCell id="KFCWLFptVul_mY4Irt0V-26" value="" style="ellipse;whiteSpace=wrap;html=1;aspect=fixed;strokeColor=#FFFFFF;fillColor=#000000;" vertex="1" parent="1">
          <mxGeometry x="735" y="250" width="20" height="20" as="geometry" />
        </mxCell>
        <mxCell id="KFCWLFptVul_mY4Irt0V-27" value="" style="ellipse;whiteSpace=wrap;html=1;aspect=fixed;strokeColor=#FFFFFF;fillColor=#000000;" vertex="1" parent="1">
          <mxGeometry x="235" y="370" width="20" height="20" as="geometry" />
        </mxCell>
        <mxCell id="KFCWLFptVul_mY4Irt0V-28" value="" style="ellipse;whiteSpace=wrap;html=1;aspect=fixed;strokeColor=#FFFFFF;fillColor=#000000;" vertex="1" parent="1">
          <mxGeometry x="395" y="370" width="20" height="20" as="geometry" />
        </mxCell>
        <mxCell id="KFCWLFptVul_mY4Irt0V-29" value="" style="ellipse;whiteSpace=wrap;html=1;aspect=fixed;strokeColor=#FFFFFF;fillColor=#000000;" vertex="1" parent="1">
          <mxGeometry x="595" y="370" width="20" height="20" as="geometry" />
        </mxCell>
        <mxCell id="KFCWLFptVul_mY4Irt0V-30" value="" style="ellipse;whiteSpace=wrap;html=1;aspect=fixed;strokeColor=#FFFFFF;fillColor=#000000;" vertex="1" parent="1">
          <mxGeometry x="235" y="130" width="20" height="20" as="geometry" />
        </mxCell>
        <mxCell id="KFCWLFptVul_mY4Irt0V-31" value="" style="ellipse;whiteSpace=wrap;html=1;aspect=fixed;strokeColor=#FFFFFF;fillColor=#000000;" vertex="1" parent="1">
          <mxGeometry x="395" y="130" width="20" height="20" as="geometry" />
        </mxCell>
        <mxCell id="KFCWLFptVul_mY4Irt0V-32" value="" style="ellipse;whiteSpace=wrap;html=1;aspect=fixed;strokeColor=#FFFFFF;fillColor=#000000;" vertex="1" parent="1">
          <mxGeometry x="595" y="130" width="20" height="20" as="geometry" />
        </mxCell>
        <mxCell id="KFCWLFptVul_mY4Irt0V-33" value="" style="endArrow=classic;startArrow=classic;html=1;rounded=0;strokeColor=#FFFFFF;strokeWidth=3;" edge="1" parent="1">
          <mxGeometry width="50" height="50" relative="1" as="geometry">
            <mxPoint x="45" y="80" as="sourcePoint" />
            <mxPoint x="245" y="80" as="targetPoint" />
          </mxGeometry>
        </mxCell>
        <mxCell id="KFCWLFptVul_mY4Irt0V-34" value="" style="endArrow=classic;startArrow=classic;html=1;rounded=0;strokeColor=#FFFFFF;strokeWidth=3;" edge="1" parent="1">
          <mxGeometry width="50" height="50" relative="1" as="geometry">
            <mxPoint x="245" y="80" as="sourcePoint" />
            <mxPoint x="405" y="80" as="targetPoint" />
          </mxGeometry>
        </mxCell>
        <mxCell id="KFCWLFptVul_mY4Irt0V-35" value="" style="endArrow=classic;startArrow=classic;html=1;rounded=0;strokeColor=#FFFFFF;strokeWidth=3;" edge="1" parent="1">
          <mxGeometry width="50" height="50" relative="1" as="geometry">
            <mxPoint x="405" y="80" as="sourcePoint" />
            <mxPoint x="605" y="80" as="targetPoint" />
          </mxGeometry>
        </mxCell>
        <mxCell id="KFCWLFptVul_mY4Irt0V-36" value="&lt;span style=&quot;color: rgb(255, 255, 255); font-size: 14px;&quot;&gt;50mm&lt;/span&gt;" style="text;html=1;align=center;verticalAlign=middle;whiteSpace=wrap;rounded=0;" vertex="1" parent="1">
          <mxGeometry x="115" y="40" width="60" height="30" as="geometry" />
        </mxCell>
        <mxCell id="KFCWLFptVul_mY4Irt0V-37" value="&lt;span style=&quot;color: rgb(255, 255, 255); font-size: 14px;&quot;&gt;50mm&lt;/span&gt;" style="text;html=1;align=center;verticalAlign=middle;whiteSpace=wrap;rounded=0;" vertex="1" parent="1">
          <mxGeometry x="295" y="40" width="60" height="30" as="geometry" />
        </mxCell>
        <mxCell id="KFCWLFptVul_mY4Irt0V-38" value="&lt;span style=&quot;color: rgb(255, 255, 255); font-size: 14px;&quot;&gt;50mm&lt;/span&gt;" style="text;html=1;align=center;verticalAlign=middle;whiteSpace=wrap;rounded=0;" vertex="1" parent="1">
          <mxGeometry x="475" y="40" width="60" height="30" as="geometry" />
        </mxCell>
        <mxCell id="KFCWLFptVul_mY4Irt0V-39" value="" style="endArrow=none;html=1;rounded=0;entryX=0.5;entryY=1;entryDx=0;entryDy=0;strokeColor=#FFFFFF;" edge="1" parent="1" target="KFCWLFptVul_mY4Irt0V-30">
          <mxGeometry width="50" height="50" relative="1" as="geometry">
            <mxPoint x="245" y="80" as="sourcePoint" />
            <mxPoint x="485" y="240" as="targetPoint" />
          </mxGeometry>
        </mxCell>
        <mxCell id="KFCWLFptVul_mY4Irt0V-40" value="" style="endArrow=none;html=1;rounded=0;entryX=0.5;entryY=1;entryDx=0;entryDy=0;strokeColor=#FFFFFF;" edge="1" parent="1">
          <mxGeometry width="50" height="50" relative="1" as="geometry">
            <mxPoint x="404.5" y="80" as="sourcePoint" />
            <mxPoint x="404.5" y="150" as="targetPoint" />
          </mxGeometry>
        </mxCell>
        <mxCell id="KFCWLFptVul_mY4Irt0V-41" value="" style="endArrow=none;html=1;rounded=0;entryX=0.5;entryY=1;entryDx=0;entryDy=0;strokeColor=#FFFFFF;" edge="1" parent="1">
          <mxGeometry width="50" height="50" relative="1" as="geometry">
            <mxPoint x="604.5" y="80" as="sourcePoint" />
            <mxPoint x="604.5" y="150" as="targetPoint" />
          </mxGeometry>
        </mxCell>
        <mxCell id="KFCWLFptVul_mY4Irt0V-42" value="" style="endArrow=none;html=1;rounded=0;entryX=0;entryY=0.5;entryDx=0;entryDy=0;strokeColor=#FFFFFF;" edge="1" parent="1" target="KFCWLFptVul_mY4Irt0V-26">
          <mxGeometry width="50" height="50" relative="1" as="geometry">
            <mxPoint x="795" y="260" as="sourcePoint" />
            <mxPoint x="785" y="280" as="targetPoint" />
          </mxGeometry>
        </mxCell>
        <mxCell id="KFCWLFptVul_mY4Irt0V-43" value="" style="endArrow=classic;startArrow=classic;html=1;rounded=0;strokeColor=#FFFFFF;strokeWidth=3;" edge="1" parent="1">
          <mxGeometry width="50" height="50" relative="1" as="geometry">
            <mxPoint x="785" y="400" as="sourcePoint" />
            <mxPoint x="785" y="260" as="targetPoint" />
          </mxGeometry>
        </mxCell>
        <mxCell id="KFCWLFptVul_mY4Irt0V-44" value="&lt;span style=&quot;color: rgb(255, 255, 255); font-size: 14px;&quot;&gt;60mm&lt;/span&gt;" style="text;html=1;align=center;verticalAlign=middle;whiteSpace=wrap;rounded=0;rotation=-90;" vertex="1" parent="1">
          <mxGeometry x="765" y="320" width="60" height="30" as="geometry" />
        </mxCell>
        <mxCell id="KFCWLFptVul_mY4Irt0V-45" value="" style="ellipse;whiteSpace=wrap;html=1;aspect=fixed;fillColor=#004C99;strokeColor=#6c8ebf;" vertex="1" parent="1">
          <mxGeometry x="70" y="470" width="160" height="160" as="geometry" />
        </mxCell>
        <mxCell id="KFCWLFptVul_mY4Irt0V-46" value="" style="endArrow=none;html=1;rounded=0;strokeColor=#FFFFFF;exitX=0;exitY=0;exitDx=0;exitDy=0;entryX=0;entryY=1;entryDx=0;entryDy=0;strokeWidth=3;" edge="1" parent="1" source="KFCWLFptVul_mY4Irt0V-45" target="KFCWLFptVul_mY4Irt0V-14">
          <mxGeometry width="50" height="50" relative="1" as="geometry">
            <mxPoint x="345" y="490" as="sourcePoint" />
            <mxPoint x="395" y="440" as="targetPoint" />
          </mxGeometry>
        </mxCell>
        <mxCell id="KFCWLFptVul_mY4Irt0V-47" value="" style="endArrow=none;html=1;rounded=0;strokeColor=#FFFFFF;exitX=1;exitY=0;exitDx=0;exitDy=0;entryX=1;entryY=1;entryDx=0;entryDy=0;strokeWidth=3;" edge="1" parent="1" source="KFCWLFptVul_mY4Irt0V-45" target="KFCWLFptVul_mY4Irt0V-14">
          <mxGeometry width="50" height="50" relative="1" as="geometry">
            <mxPoint x="103" y="503" as="sourcePoint" />
            <mxPoint x="140" y="395" as="targetPoint" />
          </mxGeometry>
        </mxCell>
        <mxCell id="KFCWLFptVul_mY4Irt0V-49" value="" style="rounded=0;whiteSpace=wrap;html=1;fillColor=#bac8d3;strokeColor=#23445d;" vertex="1" parent="1">
          <mxGeometry x="110" y="530" width="10" height="40" as="geometry" />
        </mxCell>
        <mxCell id="KFCWLFptVul_mY4Irt0V-50" value="" style="rounded=0;whiteSpace=wrap;html=1;fillColor=#bac8d3;strokeColor=#23445d;" vertex="1" parent="1">
          <mxGeometry x="130" y="530" width="10" height="40" as="geometry" />
        </mxCell>
        <mxCell id="KFCWLFptVul_mY4Irt0V-51" value="" style="rounded=0;whiteSpace=wrap;html=1;fillColor=#bac8d3;strokeColor=#23445d;" vertex="1" parent="1">
          <mxGeometry x="150" y="530" width="10" height="40" as="geometry" />
        </mxCell>
        <mxCell id="KFCWLFptVul_mY4Irt0V-52" value="" style="rounded=0;whiteSpace=wrap;html=1;fillColor=#bac8d3;strokeColor=#23445d;" vertex="1" parent="1">
          <mxGeometry x="170" y="530" width="10" height="40" as="geometry" />
        </mxCell>
        <mxCell id="KFCWLFptVul_mY4Irt0V-54" value="&lt;font style=&quot;font-size: 18px;&quot;&gt;Relay&lt;/font&gt;" style="text;html=1;align=center;verticalAlign=middle;whiteSpace=wrap;rounded=0;rotation=-90;" vertex="1" parent="1">
          <mxGeometry x="70" y="190" width="60" height="20" as="geometry" />
        </mxCell>
        <mxCell id="KFCWLFptVul_mY4Irt0V-55" value="&lt;font style=&quot;font-size: 18px;&quot;&gt;Relay&lt;/font&gt;" style="text;html=1;align=center;verticalAlign=middle;whiteSpace=wrap;rounded=0;rotation=-90;" vertex="1" parent="1">
          <mxGeometry x="70" y="310" width="60" height="20" as="geometry" />
        </mxCell>
        <mxCell id="KFCWLFptVul_mY4Irt0V-56" value="&lt;font style=&quot;font-size: 18px;&quot;&gt;Relay&lt;/font&gt;" style="text;html=1;align=center;verticalAlign=middle;whiteSpace=wrap;rounded=0;rotation=-90;" vertex="1" parent="1">
          <mxGeometry x="120" y="310" width="60" height="20" as="geometry" />
        </mxCell>
        <mxCell id="KFCWLFptVul_mY4Irt0V-57" value="&lt;font style=&quot;font-size: 18px;&quot;&gt;Relay&lt;/font&gt;" style="text;html=1;align=center;verticalAlign=middle;whiteSpace=wrap;rounded=0;rotation=-90;" vertex="1" parent="1">
          <mxGeometry x="120" y="190" width="60" height="20" as="geometry" />
        </mxCell>
        <mxCell id="KFCWLFptVul_mY4Irt0V-58" value="&lt;font style=&quot;font-size: 18px;&quot;&gt;Relay&lt;/font&gt;" style="text;html=1;align=center;verticalAlign=middle;whiteSpace=wrap;rounded=0;rotation=-90;" vertex="1" parent="1">
          <mxGeometry x="640" y="190" width="60" height="20" as="geometry" />
        </mxCell>
        <mxCell id="KFCWLFptVul_mY4Irt0V-59" value="&lt;font style=&quot;font-size: 18px;&quot;&gt;Relay&lt;/font&gt;" style="text;html=1;align=center;verticalAlign=middle;whiteSpace=wrap;rounded=0;rotation=-90;" vertex="1" parent="1">
          <mxGeometry x="690" y="190" width="60" height="20" as="geometry" />
        </mxCell>
        <mxCell id="KFCWLFptVul_mY4Irt0V-60" value="&lt;font style=&quot;font-size: 18px;&quot;&gt;Relay&lt;/font&gt;" style="text;html=1;align=center;verticalAlign=middle;whiteSpace=wrap;rounded=0;rotation=-90;" vertex="1" parent="1">
          <mxGeometry x="640" y="310" width="60" height="20" as="geometry" />
        </mxCell>
        <mxCell id="KFCWLFptVul_mY4Irt0V-61" value="&lt;font style=&quot;font-size: 18px;&quot;&gt;Relay&lt;/font&gt;" style="text;html=1;align=center;verticalAlign=middle;whiteSpace=wrap;rounded=0;rotation=-90;" vertex="1" parent="1">
          <mxGeometry x="690" y="310" width="60" height="20" as="geometry" />
        </mxCell>
        <mxCell id="KFCWLFptVul_mY4Irt0V-62" value="" style="endArrow=classic;html=1;rounded=0;entryX=0.5;entryY=1;entryDx=0;entryDy=0;strokeWidth=3;strokeColor=#FFFFFF;dashed=1;dashPattern=1 1;" edge="1" parent="1" target="KFCWLFptVul_mY4Irt0V-19">
          <mxGeometry width="50" height="50" relative="1" as="geometry">
            <mxPoint x="675" y="480" as="sourcePoint" />
            <mxPoint x="355" y="400" as="targetPoint" />
          </mxGeometry>
        </mxCell>
        <mxCell id="KFCWLFptVul_mY4Irt0V-63" value="&lt;span style=&quot;color: rgb(255, 255, 255);&quot;&gt;&lt;font style=&quot;font-size: 16px;&quot;&gt;ouput contact of a relay&lt;/font&gt;&lt;/span&gt;" style="text;html=1;align=center;verticalAlign=middle;whiteSpace=wrap;rounded=0;" vertex="1" parent="1">
          <mxGeometry x="620" y="480" width="110" height="70" as="geometry" />
        </mxCell>
        <mxCell id="KFCWLFptVul_mY4Irt0V-64" value="" style="endArrow=classic;html=1;rounded=0;entryX=0.5;entryY=1;entryDx=0;entryDy=0;strokeWidth=3;strokeColor=#FFFFFF;dashed=1;dashPattern=1 1;" edge="1" parent="1">
          <mxGeometry width="50" height="50" relative="1" as="geometry">
            <mxPoint x="154.5" y="660" as="sourcePoint" />
            <mxPoint x="154.5" y="570" as="targetPoint" />
          </mxGeometry>
        </mxCell>
        <mxCell id="KFCWLFptVul_mY4Irt0V-65" value="" style="endArrow=classic;html=1;rounded=0;entryX=0.5;entryY=1;entryDx=0;entryDy=0;strokeWidth=3;strokeColor=#FFFFFF;dashed=1;dashPattern=1 1;" edge="1" parent="1">
          <mxGeometry width="50" height="50" relative="1" as="geometry">
            <mxPoint x="134.5" y="660" as="sourcePoint" />
            <mxPoint x="134.5" y="570" as="targetPoint" />
          </mxGeometry>
        </mxCell>
        <mxCell id="KFCWLFptVul_mY4Irt0V-66" value="" style="endArrow=classic;html=1;rounded=0;entryX=0.5;entryY=1;entryDx=0;entryDy=0;strokeWidth=3;strokeColor=#FFFFFF;dashed=1;dashPattern=1 1;" edge="1" parent="1">
          <mxGeometry width="50" height="50" relative="1" as="geometry">
            <mxPoint x="245" y="550" as="sourcePoint" />
            <mxPoint x="185" y="550" as="targetPoint" />
          </mxGeometry>
        </mxCell>
        <mxCell id="KFCWLFptVul_mY4Irt0V-67" value="" style="endArrow=classic;html=1;rounded=0;entryX=0;entryY=0.5;entryDx=0;entryDy=0;strokeWidth=3;strokeColor=#FFFFFF;dashed=1;dashPattern=1 1;" edge="1" parent="1" target="KFCWLFptVul_mY4Irt0V-49">
          <mxGeometry width="50" height="50" relative="1" as="geometry">
            <mxPoint x="55" y="550" as="sourcePoint" />
            <mxPoint x="195" y="560" as="targetPoint" />
          </mxGeometry>
        </mxCell>
        <mxCell id="KFCWLFptVul_mY4Irt0V-68" value="&lt;span style=&quot;color: rgb(255, 255, 255); font-size: 14px;&quot;&gt;Pad for NO2&lt;/span&gt;" style="text;html=1;align=center;verticalAlign=middle;whiteSpace=wrap;rounded=0;" vertex="1" parent="1">
          <mxGeometry x="245" y="535" width="45" height="30" as="geometry" />
        </mxCell>
        <mxCell id="KFCWLFptVul_mY4Irt0V-69" value="&lt;span style=&quot;color: rgb(255, 255, 255); font-size: 14px;&quot;&gt;Pad for NO1&lt;/span&gt;" style="text;html=1;align=center;verticalAlign=middle;whiteSpace=wrap;rounded=0;" vertex="1" parent="1">
          <mxGeometry x="10" y="535" width="45" height="30" as="geometry" />
        </mxCell>
        <mxCell id="KFCWLFptVul_mY4Irt0V-70" value="&lt;span style=&quot;color: rgb(255, 255, 255); font-size: 14px;&quot;&gt;Pad for Comm1&lt;/span&gt;" style="text;html=1;align=center;verticalAlign=middle;whiteSpace=wrap;rounded=0;" vertex="1" parent="1">
          <mxGeometry x="85" y="660" width="60" height="30" as="geometry" />
        </mxCell>
        <mxCell id="KFCWLFptVul_mY4Irt0V-71" value="&lt;span style=&quot;color: rgb(255, 255, 255); font-size: 14px;&quot;&gt;Pad for Comm2&lt;/span&gt;" style="text;html=1;align=center;verticalAlign=middle;whiteSpace=wrap;rounded=0;" vertex="1" parent="1">
          <mxGeometry x="150" y="660" width="60" height="30" as="geometry" />
        </mxCell>
        <mxCell id="KFCWLFptVul_mY4Irt0V-72" value="" style="endArrow=none;html=1;rounded=0;entryX=0.5;entryY=1;entryDx=0;entryDy=0;strokeColor=#FFFFFF;" edge="1" parent="1">
          <mxGeometry width="50" height="50" relative="1" as="geometry">
            <mxPoint x="45" y="80" as="sourcePoint" />
            <mxPoint x="45" y="150" as="targetPoint" />
          </mxGeometry>
        </mxCell>
        <mxCell id="KFCWLFptVul_mY4Irt0V-73" value="" style="endArrow=none;html=1;rounded=0;entryX=0.5;entryY=1;entryDx=0;entryDy=0;strokeColor=#FFFFFF;" edge="1" parent="1">
          <mxGeometry width="50" height="50" relative="1" as="geometry">
            <mxPoint x="45" y="400" as="sourcePoint" />
            <mxPoint x="45" y="470" as="targetPoint" />
          </mxGeometry>
        </mxCell>
        <mxCell id="KFCWLFptVul_mY4Irt0V-74" value="" style="endArrow=none;html=1;rounded=0;entryX=0.5;entryY=1;entryDx=0;entryDy=0;strokeColor=#FFFFFF;" edge="1" parent="1">
          <mxGeometry width="50" height="50" relative="1" as="geometry">
            <mxPoint x="765" y="400" as="sourcePoint" />
            <mxPoint x="765" y="470" as="targetPoint" />
          </mxGeometry>
        </mxCell>
        <mxCell id="KFCWLFptVul_mY4Irt0V-75" value="" style="endArrow=none;html=1;rounded=0;entryX=0;entryY=0.5;entryDx=0;entryDy=0;strokeColor=#FFFFFF;" edge="1" parent="1">
          <mxGeometry width="50" height="50" relative="1" as="geometry">
            <mxPoint x="825" y="400" as="sourcePoint" />
            <mxPoint x="765" y="400" as="targetPoint" />
          </mxGeometry>
        </mxCell>
        <mxCell id="KFCWLFptVul_mY4Irt0V-76" value="" style="endArrow=none;html=1;rounded=0;entryX=0;entryY=0.5;entryDx=0;entryDy=0;strokeColor=#FFFFFF;" edge="1" parent="1">
          <mxGeometry width="50" height="50" relative="1" as="geometry">
            <mxPoint x="825" y="120" as="sourcePoint" />
            <mxPoint x="765" y="120" as="targetPoint" />
          </mxGeometry>
        </mxCell>
        <mxCell id="KFCWLFptVul_mY4Irt0V-77" value="&lt;font style=&quot;font-size: 14px;&quot; color=&quot;#ffffff&quot;&gt;1. NO - Normally Opem Contact of Relay&lt;br&gt;2. Comm - Common Pole of Relay&lt;/font&gt;&lt;div style=&quot;font-size: 14px;&quot;&gt;&lt;font style=&quot;font-size: 14px;&quot; color=&quot;#ffffff&quot;&gt;&lt;br&gt;&lt;/font&gt;&lt;/div&gt;" style="text;html=1;align=center;verticalAlign=middle;whiteSpace=wrap;rounded=0;" vertex="1" parent="1">
          <mxGeometry x="360" y="560" width="260" height="50" as="geometry" />
        </mxCell>
      </root>
    </mxGraphModel>
  </diagram>
</mxfile>
